# xmcd
#
# Track frame offsets: 
#        150
#        9810
#        22592
#        35027
#        46895
#        58015
#        67382
#        78810
#        89382
#        101122
#        115255
#        131185
#        145347
#        160685
#
# Disc length: 2366 seconds
#
# Revision: 1
# Processed by: cddbd v1.5.2PL0 Copyright (c) Steve Scherf et al.
# Submitted via: ExactAudioCopy v0.99pb3
#
DISCID=b5093c0e
DTITLE=Leo Canhoto e Robertinho - Nao as Drogas
DYEAR=2006
DGENRE=Sertanejo
TTITLE0=Karate e Kung Fu
TTITLE1=O Cacador de Corruptos
TTITLE2=Carne de Pescoco
TTITLE3=Baile do Mija Mija
TTITLE4=O Peladao
TTITLE5=Indio Gosta
TTITLE6=Namoro de Gatos
TTITLE7=O Trem Entrou
TTITLE8=Soca Soca
TTITLE9=Tatuagem na Bunda
TTITLE10=Xixi Nno Garrafao
TTITLE11=Nao as Drogas
TTITLE12=O Caipirao
TTITLE13=O Ultimo Julgamento
EXTD=
EXTT0=
EXTT1=
EXTT2=
EXTT3=
EXTT4=
EXTT5=
EXTT6=
EXTT7=
EXTT8=
EXTT9=
EXTT10=
EXTT11=
EXTT12=
EXTT13=
PLAYORDER=
